<mxfile host="app.diagrams.net" agent="Mozilla/5.0 (Windows NT 10.0; Win64; x64) AppleWebKit/537.36 (KHTML, like Gecko) Chrome/136.0.0.0 Safari/537.36 Edg/136.0.0.0" version="26.0.16">
  <diagram name="Página-1" id="XNeC20FHHQ3Inh-4HlcB">
    <mxGraphModel dx="1501" dy="831" grid="1" gridSize="10" guides="1" tooltips="1" connect="1" arrows="1" fold="1" page="0" pageScale="1" pageWidth="1169" pageHeight="827" math="0" shadow="0">
      <root>
        <mxCell id="0" />
        <mxCell id="1" parent="0" />
        <mxCell id="MZefOJRJUi6eM09TGeu3-40" value="" style="endArrow=none;html=1;rounded=0;exitX=0.082;exitY=0.032;exitDx=0;exitDy=0;exitPerimeter=0;strokeWidth=2;strokeColor=#A680B8;entryX=0.081;entryY=0.954;entryDx=0;entryDy=0;entryPerimeter=0;" edge="1" parent="1" source="MZefOJRJUi6eM09TGeu3-10" target="MZefOJRJUi6eM09TGeu3-8">
          <mxGeometry width="50" height="50" relative="1" as="geometry">
            <mxPoint x="145" y="540" as="sourcePoint" />
            <mxPoint x="145" y="502" as="targetPoint" />
          </mxGeometry>
        </mxCell>
        <mxCell id="MZefOJRJUi6eM09TGeu3-41" value="1x1G" style="edgeLabel;html=1;align=center;verticalAlign=middle;resizable=0;points=[];" vertex="1" connectable="0" parent="MZefOJRJUi6eM09TGeu3-40">
          <mxGeometry x="-0.4832" relative="1" as="geometry">
            <mxPoint as="offset" />
          </mxGeometry>
        </mxCell>
        <mxCell id="MZefOJRJUi6eM09TGeu3-16" value="" style="endArrow=none;html=1;rounded=0;strokeWidth=2;exitX=0.75;exitY=0;exitDx=0;exitDy=0;entryX=0.75;entryY=1;entryDx=0;entryDy=0;strokeColor=#7EA6E0;" edge="1" parent="1" source="MZefOJRJUi6eM09TGeu3-7" target="MZefOJRJUi6eM09TGeu3-10">
          <mxGeometry width="50" height="50" relative="1" as="geometry">
            <mxPoint x="203" y="637" as="sourcePoint" />
            <mxPoint x="460" y="523" as="targetPoint" />
          </mxGeometry>
        </mxCell>
        <mxCell id="MZefOJRJUi6eM09TGeu3-18" value="1&lt;span style=&quot;background-color: light-dark(#ffffff, var(--ge-dark-color, #121212)); color: light-dark(rgb(0, 0, 0), rgb(255, 255, 255));&quot;&gt;x10G&lt;/span&gt;" style="edgeLabel;html=1;align=center;verticalAlign=middle;resizable=0;points=[];" vertex="1" connectable="0" parent="MZefOJRJUi6eM09TGeu3-16">
          <mxGeometry x="-0.8462" y="-1" relative="1" as="geometry">
            <mxPoint x="-1" y="-12" as="offset" />
          </mxGeometry>
        </mxCell>
        <mxCell id="MZefOJRJUi6eM09TGeu3-4" value="" style="endArrow=none;html=1;rounded=0;entryX=0.886;entryY=1.059;entryDx=0;entryDy=0;exitX=0.896;exitY=-0.062;exitDx=0;exitDy=0;strokeWidth=2;strokeColor=#7EA6E0;entryPerimeter=0;exitPerimeter=0;" edge="1" parent="1" source="MZefOJRJUi6eM09TGeu3-7" target="MZefOJRJUi6eM09TGeu3-8">
          <mxGeometry width="50" height="50" relative="1" as="geometry">
            <mxPoint x="275" y="568" as="sourcePoint" />
            <mxPoint x="275" y="369" as="targetPoint" />
          </mxGeometry>
        </mxCell>
        <mxCell id="MZefOJRJUi6eM09TGeu3-5" value="2 x 10G" style="edgeLabel;html=1;align=center;verticalAlign=middle;resizable=0;points=[];" vertex="1" connectable="0" parent="MZefOJRJUi6eM09TGeu3-4">
          <mxGeometry x="-0.2764" y="3" relative="1" as="geometry">
            <mxPoint x="7" y="99" as="offset" />
          </mxGeometry>
        </mxCell>
        <mxCell id="MZefOJRJUi6eM09TGeu3-25" value="40km" style="edgeLabel;html=1;align=center;verticalAlign=middle;resizable=0;points=[];" vertex="1" connectable="0" parent="MZefOJRJUi6eM09TGeu3-4">
          <mxGeometry x="0.8889" y="2" relative="1" as="geometry">
            <mxPoint as="offset" />
          </mxGeometry>
        </mxCell>
        <mxCell id="MZefOJRJUi6eM09TGeu3-26" value="52km" style="edgeLabel;html=1;align=center;verticalAlign=middle;resizable=0;points=[];" vertex="1" connectable="0" parent="MZefOJRJUi6eM09TGeu3-4">
          <mxGeometry x="0.5198" y="2" relative="1" as="geometry">
            <mxPoint as="offset" />
          </mxGeometry>
        </mxCell>
        <mxCell id="MZefOJRJUi6eM09TGeu3-27" value="100km" style="edgeLabel;html=1;align=center;verticalAlign=middle;resizable=0;points=[];" vertex="1" connectable="0" parent="MZefOJRJUi6eM09TGeu3-4">
          <mxGeometry x="-0.027" relative="1" as="geometry">
            <mxPoint as="offset" />
          </mxGeometry>
        </mxCell>
        <mxCell id="MZefOJRJUi6eM09TGeu3-28" value="45km" style="edgeLabel;html=1;align=center;verticalAlign=middle;resizable=0;points=[];" vertex="1" connectable="0" parent="MZefOJRJUi6eM09TGeu3-4">
          <mxGeometry x="-0.5738" y="1" relative="1" as="geometry">
            <mxPoint as="offset" />
          </mxGeometry>
        </mxCell>
        <mxCell id="MZefOJRJUi6eM09TGeu3-7" value="Mendoza" style="rounded=0;whiteSpace=wrap;html=1;" vertex="1" parent="1">
          <mxGeometry x="120" y="662" width="195" height="40" as="geometry" />
        </mxCell>
        <mxCell id="MZefOJRJUi6eM09TGeu3-8" value="San Juan" style="rounded=0;whiteSpace=wrap;html=1;" vertex="1" parent="1">
          <mxGeometry x="120" y="314" width="195" height="40" as="geometry" />
        </mxCell>
        <mxCell id="MZefOJRJUi6eM09TGeu3-9" value="Villa Tulumaya" style="rounded=0;whiteSpace=wrap;html=1;opacity=80;" vertex="1" parent="1">
          <mxGeometry x="120" y="529" width="193" height="40" as="geometry" />
        </mxCell>
        <mxCell id="MZefOJRJUi6eM09TGeu3-10" value="Villa Media Agua" style="rounded=0;whiteSpace=wrap;html=1;opacity=80;" vertex="1" parent="1">
          <mxGeometry x="120" y="453" width="194" height="40" as="geometry" />
        </mxCell>
        <mxCell id="MZefOJRJUi6eM09TGeu3-12" value="Caucete" style="triangle;whiteSpace=wrap;html=1;" vertex="1" parent="1">
          <mxGeometry x="120" y="373" width="193" height="48" as="geometry" />
        </mxCell>
        <mxCell id="MZefOJRJUi6eM09TGeu3-21" value="" style="endArrow=none;html=1;rounded=0;strokeWidth=2;exitX=0.626;exitY=-0.036;exitDx=0;exitDy=0;entryX=0.627;entryY=1.026;entryDx=0;entryDy=0;strokeColor=#7EA6E0;exitPerimeter=0;entryPerimeter=0;" edge="1" parent="1" source="MZefOJRJUi6eM09TGeu3-7" target="MZefOJRJUi6eM09TGeu3-9">
          <mxGeometry width="50" height="50" relative="1" as="geometry">
            <mxPoint x="559" y="531" as="sourcePoint" />
            <mxPoint x="609" y="481" as="targetPoint" />
          </mxGeometry>
        </mxCell>
        <mxCell id="MZefOJRJUi6eM09TGeu3-22" value="1x10G" style="edgeLabel;html=1;align=center;verticalAlign=middle;resizable=0;points=[];" vertex="1" connectable="0" parent="MZefOJRJUi6eM09TGeu3-21">
          <mxGeometry x="-0.3533" y="3" relative="1" as="geometry">
            <mxPoint y="-7" as="offset" />
          </mxGeometry>
        </mxCell>
        <mxCell id="MZefOJRJUi6eM09TGeu3-29" value="Córdoba" style="rounded=0;whiteSpace=wrap;html=1;" vertex="1" parent="1">
          <mxGeometry x="1324" y="314" width="120" height="40" as="geometry" />
        </mxCell>
        <mxCell id="MZefOJRJUi6eM09TGeu3-30" value="Vallecito" style="triangle;whiteSpace=wrap;html=1;" vertex="1" parent="1">
          <mxGeometry x="392" y="310" width="118" height="48" as="geometry" />
        </mxCell>
        <mxCell id="MZefOJRJUi6eM09TGeu3-31" value="Marayes" style="triangle;whiteSpace=wrap;html=1;" vertex="1" parent="1">
          <mxGeometry x="562" y="310" width="118" height="48" as="geometry" />
        </mxCell>
        <mxCell id="MZefOJRJUi6eM09TGeu3-32" value="Chepes" style="triangle;whiteSpace=wrap;html=1;" vertex="1" parent="1">
          <mxGeometry x="737" y="310" width="118" height="48" as="geometry" />
        </mxCell>
        <mxCell id="MZefOJRJUi6eM09TGeu3-33" value="Milagro" style="triangle;whiteSpace=wrap;html=1;" vertex="1" parent="1">
          <mxGeometry x="911" y="310" width="118" height="48" as="geometry" />
        </mxCell>
        <mxCell id="MZefOJRJUi6eM09TGeu3-35" value="Serrezuela" style="rounded=0;whiteSpace=wrap;html=1;" vertex="1" parent="1">
          <mxGeometry x="1094" y="314" width="120" height="40" as="geometry" />
        </mxCell>
        <mxCell id="MZefOJRJUi6eM09TGeu3-36" value="" style="endArrow=none;html=1;rounded=0;entryX=0.082;entryY=1;entryDx=0;entryDy=0;exitX=0.081;exitY=0.017;exitDx=0;exitDy=0;exitPerimeter=0;entryPerimeter=0;strokeWidth=2;strokeColor=#A680B8;" edge="1" parent="1" source="MZefOJRJUi6eM09TGeu3-7" target="MZefOJRJUi6eM09TGeu3-9">
          <mxGeometry width="50" height="50" relative="1" as="geometry">
            <mxPoint x="460" y="500" as="sourcePoint" />
            <mxPoint x="510" y="450" as="targetPoint" />
          </mxGeometry>
        </mxCell>
        <mxCell id="MZefOJRJUi6eM09TGeu3-37" value="1x1G" style="edgeLabel;html=1;align=center;verticalAlign=middle;resizable=0;points=[];" vertex="1" connectable="0" parent="MZefOJRJUi6eM09TGeu3-36">
          <mxGeometry x="-0.4832" relative="1" as="geometry">
            <mxPoint as="offset" />
          </mxGeometry>
        </mxCell>
        <mxCell id="MZefOJRJUi6eM09TGeu3-38" value="" style="endArrow=none;html=1;rounded=0;entryX=0.076;entryY=0.979;entryDx=0;entryDy=0;exitX=0.077;exitY=0.026;exitDx=0;exitDy=0;exitPerimeter=0;entryPerimeter=0;strokeWidth=2;strokeColor=#A680B8;" edge="1" parent="1" source="MZefOJRJUi6eM09TGeu3-9" target="MZefOJRJUi6eM09TGeu3-10">
          <mxGeometry width="50" height="50" relative="1" as="geometry">
            <mxPoint x="146" y="673" as="sourcePoint" />
            <mxPoint x="146" y="579" as="targetPoint" />
          </mxGeometry>
        </mxCell>
        <mxCell id="MZefOJRJUi6eM09TGeu3-39" value="1x1G" style="edgeLabel;html=1;align=center;verticalAlign=middle;resizable=0;points=[];" vertex="1" connectable="0" parent="MZefOJRJUi6eM09TGeu3-38">
          <mxGeometry x="-0.4832" relative="1" as="geometry">
            <mxPoint as="offset" />
          </mxGeometry>
        </mxCell>
      </root>
    </mxGraphModel>
  </diagram>
</mxfile>
